<svg xmlns="http://www.w3.org/2000/svg" viewBox="0 0 120.95 25"><defs><style>.cls-1{fill:#000000;}</style></defs><title>Asset 2</title><g id="Layer_2" data-name="Layer 2"><g id="Layer_1-2" data-name="Layer 1"><path class="cls-1" d="M50.32,7.46,44.06,0H37V6.78h5V5.37l1.75,2.09L46,10.06H37.09V25h5V15.06h8.08l6.55,7.81L54.94,25H65L50.32,7.46ZM28.11,0H9.25V5l4.22,5H0l4.2,5H17.64v0l2.11,2.51h0L26,25h7V10H24.4L28,14.26v5.31l-1.71-2h0L15.75,5H28.11V6.78h5V0h-5ZM65,0H60V16.93l5,6V12.43l4.29,5.11h0L75.53,25h6.52l-6.26-7.46h0L74.5,16,83.7,5V0H65Zm6.26,12.11L69.47,10H65V5H77.2Zm49.71,3-4.19-5H103.29l-2.19-2.6h0L94.84,0h-7.2V6.78h5V5.15l1.93,2.31h0l2.19,2.6H87.87V25h5V15.06H101l6.55,7.81L105.72,25h10.1l-8.34-9.94Z"/></g></g></svg>